<?xml version="1.0" standalone="no"?>
<!DOCTYPE svg PUBLIC "-//W3C//DTD SVG 20010904//EN"
 "http://www.w3.org/TR/2001/REC-SVG-20010904/DTD/svg10.dtd">
<svg version="1.0" xmlns="http://www.w3.org/2000/svg"
 width="400.000000pt" height="400.000000pt" viewBox="0 0 400.000000 400.000000"
 preserveAspectRatio="xMidYMid meet">
<metadata>
Created by potrace 1.11, written by Peter Selinger 2001-2013
</metadata>
<g transform="translate(0.000000,400.000000) scale(0.100000,-0.100000)"
fill="#000000" stroke="none">
<path d="M1865 3693 c-421 -35 -795 -140 -1059 -298 -61 -36 -113 -65 -117
-65 -4 0 -45 18 -90 40 -45 22 -97 43 -115 46 -23 4 -82 -7 -191 -36 -87 -23
-168 -45 -181 -47 -13 -3 -30 -16 -38 -28 -14 -21 -12 -31 21 -115 19 -51 65
-155 101 -231 l67 -138 -27 -67 c-64 -159 -116 -434 -116 -613 0 -239 68 -518
181 -743 59 -117 204 -326 266 -381 24 -21 209 -112 320 -157 46 -19 83 -37
83 -41 0 -3 -15 -39 -34 -80 -53 -116 -77 -196 -74 -248 l3 -46 479 -3 c320
-1 482 1 486 8 4 6 3 40 -2 77 -4 37 -7 67 -5 68 1 1 38 -2 82 -7 44 -5 124
-7 177 -4 l97 5 -7 -37 c-4 -20 -7 -53 -7 -72 l0 -35 485 0 485 0 -2 60 c-1
61 -26 140 -77 244 -14 30 -25 55 -23 56 1 1 40 17 87 35 47 18 145 61 218 96
153 73 190 106 301 269 136 199 230 428 272 660 18 105 20 145 16 320 -4 152
-10 222 -26 294 -33 148 -78 283 -126 379 -25 50 -45 94 -45 100 0 6 24 66 54
134 30 68 59 141 64 161 17 60 1 70 -194 122 -94 25 -181 45 -193 45 -12 0
-51 -12 -87 -26 l-64 -25 -147 73 c-270 135 -544 209 -902 243 -141 14 -294
17 -396 8z m365 -98 c257 -24 422 -58 640 -132 96 -33 287 -120 317 -145 10
-8 -4 -21 -55 -51 -82 -49 -133 -87 -192 -143 -49 -47 -103 -74 -147 -74 -16
0 -62 11 -103 24 -169 53 -318 80 -542 96 -268 20 -625 -17 -898 -92 -149 -41
-178 -36 -278 53 -37 33 -93 77 -125 98 l-58 39 29 21 c16 11 71 42 123 69
244 128 559 211 909 241 147 13 213 12 380 -4z m-1775 -644 c24 -11 54 -21 65
-21 35 0 75 -26 124 -81 45 -50 123 -176 114 -184 -8 -8 -152 41 -223 76 -79
39 -171 124 -200 184 -10 22 -21 62 -23 90 l-5 50 51 -46 c28 -26 72 -56 97
-68z m3145 10 c-21 -79 -113 -171 -229 -228 -57 -27 -202 -75 -209 -69 -5 6
26 63 68 126 52 77 111 127 157 136 58 10 119 42 171 89 l47 43 3 -28 c2 -16
-2 -47 -8 -69z m91 -178 c51 -115 98 -285 119 -433 18 -124 8 -410 -18 -525
-44 -197 -124 -385 -232 -545 -112 -166 -152 -204 -279 -266 -314 -151 -662
-259 -1051 -325 -337 -58 -919 73 -1455 326 -124 58 -158 89 -262 242 -150
219 -232 432 -268 697 -19 139 -19 233 0 376 16 122 35 208 67 308 l20 62 37
-29 c73 -58 174 -101 327 -140 65 -17 80 -42 94 -151 14 -123 46 -287 71 -375
116 -400 235 -575 572 -845 l68 -55 -28 -12 c-15 -6 -71 -28 -124 -48 -117
-45 -199 -90 -199 -111 0 -27 28 -26 82 3 79 43 287 123 320 123 5 0 24 -11
42 -25 48 -37 148 -78 264 -110 l102 -28 103 28 c112 30 198 67 267 114 53 36
71 37 165 11 39 -11 73 -20 76 -20 4 0 9 -16 12 -35 12 -77 72 -125 154 -125
91 0 153 63 153 155 0 90 -62 155 -148 155 -70 0 -112 -26 -157 -98 -4 -5
-135 32 -135 39 0 4 37 38 83 75 120 98 267 249 316 324 146 225 246 540 286
901 8 75 29 94 141 124 113 30 169 54 244 105 64 44 101 85 125 143 8 20 17
37 20 37 2 0 14 -21 26 -47z m-1060 -242 c62 -32 79 -49 105 -106 57 -120 11
-250 -108 -309 -87 -43 -177 -31 -252 35 -24 21 -49 52 -56 69 -8 19 -16 28
-22 22 -11 -11 -13 -91 -4 -120 5 -15 1 -21 -18 -24 -21 -4 -25 0 -31 29 -9
48 4 149 28 213 35 97 88 161 162 197 62 30 131 27 196 -6z m-1030 -9 c40 -21
64 -43 96 -90 55 -80 77 -155 78 -257 0 -73 -2 -80 -20 -80 -18 0 -21 8 -25
79 l-5 80 -32 -52 c-46 -75 -99 -106 -188 -110 -80 -4 -109 6 -169 59 -111 97
-96 275 29 361 46 31 60 35 131 37 39 1 65 -6 105 -27z m576 -924 c40 -37 41
-36 -122 -268 -48 -68 -62 -80 -96 -80 -23 0 -42 21 -133 142 -64 85 -106 151
-106 165 0 13 9 32 20 43 19 19 33 20 217 20 188 0 198 -1 220 -22z"/>
</g>
</svg>
